<svg xmlns="http://www.w3.org/2000/svg" viewBox="0 0 96 96">
  <g fill="none" stroke="#476b37" stroke-linecap="round" stroke-linejoin="round" stroke-width="1.8">
    <path d="M13 28v-9m0 6-5-5m5 3 5-6M61 18V8m0 7-5-5m5 3 6-7M83 60V49m0 8-5-5m5 2 6-7M35 76V65m0 7-6-6m6 4 5-7"/>
    <path d="M2 46c12-5 23-4 35 1m9 38c14-4 28-3 43 2" opacity=".7"/>
  </g>
  <g fill="#6d8b4f">
    <circle cx="26" cy="13" r="1.5"/><circle cx="76" cy="30" r="1.4"/><circle cx="17" cy="68" r="1.3"/><circle cx="57" cy="55" r="1.5"/><circle cx="91" cy="86" r="1.2"/>
  </g>
</svg>
